<mxfile host="Electron" modified="2023-04-08T07:28:05.002Z" agent="Mozilla/5.0 (Windows NT 10.0; Win64; x64) AppleWebKit/537.36 (KHTML, like Gecko) draw.io/21.1.2 Chrome/106.0.5249.199 Electron/21.4.3 Safari/537.36" etag="sZOvnpqhW-9EmCl9maqb" version="21.1.2" type="device">
  <diagram id="C5RBs43oDa-KdzZeNtuy" name="Page-1">
    <mxGraphModel dx="1373" dy="998" grid="1" gridSize="10" guides="1" tooltips="1" connect="1" arrows="1" fold="1" page="1" pageScale="1" pageWidth="827" pageHeight="1169" math="0" shadow="0">
      <root>
        <mxCell id="WIyWlLk6GJQsqaUBKTNV-0" />
        <mxCell id="WIyWlLk6GJQsqaUBKTNV-1" parent="WIyWlLk6GJQsqaUBKTNV-0" />
        <mxCell id="k0j4HsbBSSwY-GXr98-S-2" value="" style="edgeStyle=orthogonalEdgeStyle;rounded=0;orthogonalLoop=1;jettySize=auto;html=1;" edge="1" parent="WIyWlLk6GJQsqaUBKTNV-1" source="k0j4HsbBSSwY-GXr98-S-0" target="k0j4HsbBSSwY-GXr98-S-1">
          <mxGeometry relative="1" as="geometry" />
        </mxCell>
        <mxCell id="k0j4HsbBSSwY-GXr98-S-0" value="Start" style="ellipse;whiteSpace=wrap;html=1;fillColor=#f8cecc;strokeColor=#b85450;" vertex="1" parent="WIyWlLk6GJQsqaUBKTNV-1">
          <mxGeometry x="120" y="20" width="120" height="50" as="geometry" />
        </mxCell>
        <mxCell id="k0j4HsbBSSwY-GXr98-S-5" value="" style="edgeStyle=orthogonalEdgeStyle;rounded=0;orthogonalLoop=1;jettySize=auto;html=1;" edge="1" parent="WIyWlLk6GJQsqaUBKTNV-1" source="k0j4HsbBSSwY-GXr98-S-1" target="k0j4HsbBSSwY-GXr98-S-4">
          <mxGeometry relative="1" as="geometry" />
        </mxCell>
        <mxCell id="k0j4HsbBSSwY-GXr98-S-1" value="ввод данных&lt;br&gt;string[] userArray" style="shape=parallelogram;perimeter=parallelogramPerimeter;whiteSpace=wrap;html=1;fixedSize=1;fillColor=#dae8fc;strokeColor=#6c8ebf;" vertex="1" parent="WIyWlLk6GJQsqaUBKTNV-1">
          <mxGeometry x="110" y="100" width="140" height="70" as="geometry" />
        </mxCell>
        <mxCell id="k0j4HsbBSSwY-GXr98-S-9" value="" style="edgeStyle=orthogonalEdgeStyle;rounded=0;orthogonalLoop=1;jettySize=auto;html=1;" edge="1" parent="WIyWlLk6GJQsqaUBKTNV-1" source="k0j4HsbBSSwY-GXr98-S-3" target="k0j4HsbBSSwY-GXr98-S-8">
          <mxGeometry relative="1" as="geometry" />
        </mxCell>
        <mxCell id="k0j4HsbBSSwY-GXr98-S-10" style="edgeStyle=orthogonalEdgeStyle;rounded=0;orthogonalLoop=1;jettySize=auto;html=1;exitX=1;exitY=0.5;exitDx=0;exitDy=0;entryX=0.5;entryY=0;entryDx=0;entryDy=0;" edge="1" parent="WIyWlLk6GJQsqaUBKTNV-1" source="k0j4HsbBSSwY-GXr98-S-3" target="k0j4HsbBSSwY-GXr98-S-7">
          <mxGeometry relative="1" as="geometry" />
        </mxCell>
        <mxCell id="k0j4HsbBSSwY-GXr98-S-3" value="index &amp;lt; userArray.Length" style="rhombus;whiteSpace=wrap;html=1;fillColor=#d5e8d4;strokeColor=#82b366;" vertex="1" parent="WIyWlLk6GJQsqaUBKTNV-1">
          <mxGeometry x="90" y="380" width="180" height="120" as="geometry" />
        </mxCell>
        <mxCell id="k0j4HsbBSSwY-GXr98-S-6" value="" style="edgeStyle=orthogonalEdgeStyle;rounded=0;orthogonalLoop=1;jettySize=auto;html=1;" edge="1" parent="WIyWlLk6GJQsqaUBKTNV-1" source="k0j4HsbBSSwY-GXr98-S-4" target="k0j4HsbBSSwY-GXr98-S-3">
          <mxGeometry relative="1" as="geometry" />
        </mxCell>
        <mxCell id="k0j4HsbBSSwY-GXr98-S-4" value="index = 0&lt;br&gt;string[] myArray[0]&lt;br&gt;string text" style="rounded=0;whiteSpace=wrap;html=1;" vertex="1" parent="WIyWlLk6GJQsqaUBKTNV-1">
          <mxGeometry x="95" y="200" width="170" height="70" as="geometry" />
        </mxCell>
        <mxCell id="k0j4HsbBSSwY-GXr98-S-14" value="" style="edgeStyle=orthogonalEdgeStyle;rounded=0;orthogonalLoop=1;jettySize=auto;html=1;" edge="1" parent="WIyWlLk6GJQsqaUBKTNV-1" source="k0j4HsbBSSwY-GXr98-S-7" target="k0j4HsbBSSwY-GXr98-S-13">
          <mxGeometry relative="1" as="geometry" />
        </mxCell>
        <mxCell id="k0j4HsbBSSwY-GXr98-S-7" value="text = userArray[index]" style="rounded=0;whiteSpace=wrap;html=1;" vertex="1" parent="WIyWlLk6GJQsqaUBKTNV-1">
          <mxGeometry x="370" y="480" width="150" height="60" as="geometry" />
        </mxCell>
        <mxCell id="k0j4HsbBSSwY-GXr98-S-21" style="edgeStyle=orthogonalEdgeStyle;rounded=0;orthogonalLoop=1;jettySize=auto;html=1;exitX=0.5;exitY=1;exitDx=0;exitDy=0;entryX=0.5;entryY=0;entryDx=0;entryDy=0;" edge="1" parent="WIyWlLk6GJQsqaUBKTNV-1" source="k0j4HsbBSSwY-GXr98-S-8" target="k0j4HsbBSSwY-GXr98-S-20">
          <mxGeometry relative="1" as="geometry" />
        </mxCell>
        <mxCell id="k0j4HsbBSSwY-GXr98-S-8" value="вывод myArray" style="shape=parallelogram;perimeter=parallelogramPerimeter;whiteSpace=wrap;html=1;fixedSize=1;fillColor=#dae8fc;strokeColor=#6c8ebf;" vertex="1" parent="WIyWlLk6GJQsqaUBKTNV-1">
          <mxGeometry x="120" y="845" width="120" height="60" as="geometry" />
        </mxCell>
        <mxCell id="k0j4HsbBSSwY-GXr98-S-11" value="нет" style="text;html=1;strokeColor=none;fillColor=none;align=center;verticalAlign=middle;whiteSpace=wrap;rounded=0;" vertex="1" parent="WIyWlLk6GJQsqaUBKTNV-1">
          <mxGeometry x="264" y="410" width="60" height="30" as="geometry" />
        </mxCell>
        <mxCell id="k0j4HsbBSSwY-GXr98-S-12" value="да" style="text;html=1;strokeColor=none;fillColor=none;align=center;verticalAlign=middle;whiteSpace=wrap;rounded=0;" vertex="1" parent="WIyWlLk6GJQsqaUBKTNV-1">
          <mxGeometry x="170" y="500" width="60" height="30" as="geometry" />
        </mxCell>
        <mxCell id="k0j4HsbBSSwY-GXr98-S-15" style="edgeStyle=orthogonalEdgeStyle;rounded=0;orthogonalLoop=1;jettySize=auto;html=1;exitX=1;exitY=0.5;exitDx=0;exitDy=0;entryX=1;entryY=0.5;entryDx=0;entryDy=0;" edge="1" parent="WIyWlLk6GJQsqaUBKTNV-1" source="k0j4HsbBSSwY-GXr98-S-13" target="k0j4HsbBSSwY-GXr98-S-36">
          <mxGeometry relative="1" as="geometry">
            <mxPoint x="180" y="360" as="targetPoint" />
            <Array as="points">
              <mxPoint x="620" y="620" />
              <mxPoint x="620" y="920" />
            </Array>
          </mxGeometry>
        </mxCell>
        <mxCell id="k0j4HsbBSSwY-GXr98-S-19" value="" style="edgeStyle=orthogonalEdgeStyle;rounded=0;orthogonalLoop=1;jettySize=auto;html=1;" edge="1" parent="WIyWlLk6GJQsqaUBKTNV-1" source="k0j4HsbBSSwY-GXr98-S-13" target="k0j4HsbBSSwY-GXr98-S-18">
          <mxGeometry relative="1" as="geometry" />
        </mxCell>
        <mxCell id="k0j4HsbBSSwY-GXr98-S-13" value="text.Length &amp;lt;= 3" style="rhombus;whiteSpace=wrap;html=1;fillColor=#d5e8d4;strokeColor=#82b366;" vertex="1" parent="WIyWlLk6GJQsqaUBKTNV-1">
          <mxGeometry x="360" y="570" width="170" height="100" as="geometry" />
        </mxCell>
        <mxCell id="k0j4HsbBSSwY-GXr98-S-16" value="нет" style="text;html=1;strokeColor=none;fillColor=none;align=center;verticalAlign=middle;whiteSpace=wrap;rounded=0;" vertex="1" parent="WIyWlLk6GJQsqaUBKTNV-1">
          <mxGeometry x="510" y="590" width="60" height="30" as="geometry" />
        </mxCell>
        <mxCell id="k0j4HsbBSSwY-GXr98-S-17" value="да" style="text;html=1;strokeColor=none;fillColor=none;align=center;verticalAlign=middle;whiteSpace=wrap;rounded=0;" vertex="1" parent="WIyWlLk6GJQsqaUBKTNV-1">
          <mxGeometry x="430" y="670" width="60" height="30" as="geometry" />
        </mxCell>
        <mxCell id="k0j4HsbBSSwY-GXr98-S-38" value="" style="edgeStyle=orthogonalEdgeStyle;rounded=0;orthogonalLoop=1;jettySize=auto;html=1;" edge="1" parent="WIyWlLk6GJQsqaUBKTNV-1" source="k0j4HsbBSSwY-GXr98-S-18" target="k0j4HsbBSSwY-GXr98-S-36">
          <mxGeometry relative="1" as="geometry" />
        </mxCell>
        <mxCell id="k0j4HsbBSSwY-GXr98-S-18" value="добавление нового элемента в массив&lt;br&gt;myArray = AddItem(myArray, text)" style="shape=process;whiteSpace=wrap;html=1;backgroundOutline=1;fillColor=#e1d5e7;strokeColor=#9673a6;" vertex="1" parent="WIyWlLk6GJQsqaUBKTNV-1">
          <mxGeometry x="307.5" y="730" width="275" height="85" as="geometry" />
        </mxCell>
        <mxCell id="k0j4HsbBSSwY-GXr98-S-20" value="Stop" style="ellipse;whiteSpace=wrap;html=1;fillColor=#f8cecc;strokeColor=#b85450;" vertex="1" parent="WIyWlLk6GJQsqaUBKTNV-1">
          <mxGeometry x="120" y="970" width="120" height="50" as="geometry" />
        </mxCell>
        <mxCell id="k0j4HsbBSSwY-GXr98-S-22" value="" style="swimlane;startSize=0;" vertex="1" parent="WIyWlLk6GJQsqaUBKTNV-1">
          <mxGeometry x="760" y="80" width="730" height="1040" as="geometry" />
        </mxCell>
        <mxCell id="k0j4HsbBSSwY-GXr98-S-23" value="AddItem" style="text;html=1;align=center;verticalAlign=middle;resizable=0;points=[];autosize=1;strokeColor=#9673a6;fillColor=#e1d5e7;spacingLeft=50;spacingRight=50;" vertex="1" parent="k0j4HsbBSSwY-GXr98-S-22">
          <mxGeometry x="30" y="20" width="160" height="30" as="geometry" />
        </mxCell>
        <mxCell id="k0j4HsbBSSwY-GXr98-S-27" value="" style="edgeStyle=orthogonalEdgeStyle;rounded=0;orthogonalLoop=1;jettySize=auto;html=1;" edge="1" parent="k0j4HsbBSSwY-GXr98-S-22" source="k0j4HsbBSSwY-GXr98-S-25" target="k0j4HsbBSSwY-GXr98-S-26">
          <mxGeometry relative="1" as="geometry" />
        </mxCell>
        <mxCell id="k0j4HsbBSSwY-GXr98-S-25" value="Start" style="ellipse;whiteSpace=wrap;html=1;fillColor=#f8cecc;strokeColor=#b85450;" vertex="1" parent="k0j4HsbBSSwY-GXr98-S-22">
          <mxGeometry x="240" y="90" width="120" height="50" as="geometry" />
        </mxCell>
        <mxCell id="k0j4HsbBSSwY-GXr98-S-29" value="" style="edgeStyle=orthogonalEdgeStyle;rounded=0;orthogonalLoop=1;jettySize=auto;html=1;" edge="1" parent="k0j4HsbBSSwY-GXr98-S-22" source="k0j4HsbBSSwY-GXr98-S-26" target="k0j4HsbBSSwY-GXr98-S-28">
          <mxGeometry relative="1" as="geometry" />
        </mxCell>
        <mxCell id="k0j4HsbBSSwY-GXr98-S-26" value="string[] myArray&lt;br&gt;string text" style="rounded=1;whiteSpace=wrap;html=1;" vertex="1" parent="k0j4HsbBSSwY-GXr98-S-22">
          <mxGeometry x="240" y="165" width="120" height="60" as="geometry" />
        </mxCell>
        <mxCell id="k0j4HsbBSSwY-GXr98-S-31" value="" style="edgeStyle=orthogonalEdgeStyle;rounded=0;orthogonalLoop=1;jettySize=auto;html=1;" edge="1" parent="k0j4HsbBSSwY-GXr98-S-22" source="k0j4HsbBSSwY-GXr98-S-28" target="k0j4HsbBSSwY-GXr98-S-30">
          <mxGeometry relative="1" as="geometry" />
        </mxCell>
        <mxCell id="k0j4HsbBSSwY-GXr98-S-28" value="string[] newArray[myArray.Length+1]&amp;nbsp;" style="rounded=0;whiteSpace=wrap;html=1;" vertex="1" parent="k0j4HsbBSSwY-GXr98-S-22">
          <mxGeometry x="167.5" y="265" width="265" height="60" as="geometry" />
        </mxCell>
        <mxCell id="k0j4HsbBSSwY-GXr98-S-35" value="" style="edgeStyle=orthogonalEdgeStyle;rounded=0;orthogonalLoop=1;jettySize=auto;html=1;" edge="1" parent="k0j4HsbBSSwY-GXr98-S-22" source="k0j4HsbBSSwY-GXr98-S-30" target="k0j4HsbBSSwY-GXr98-S-32">
          <mxGeometry relative="1" as="geometry" />
        </mxCell>
        <mxCell id="k0j4HsbBSSwY-GXr98-S-30" value="index = 0" style="rounded=0;whiteSpace=wrap;html=1;" vertex="1" parent="k0j4HsbBSSwY-GXr98-S-22">
          <mxGeometry x="240" y="370" width="120" height="35" as="geometry" />
        </mxCell>
        <mxCell id="k0j4HsbBSSwY-GXr98-S-42" value="" style="edgeStyle=orthogonalEdgeStyle;rounded=0;orthogonalLoop=1;jettySize=auto;html=1;" edge="1" parent="k0j4HsbBSSwY-GXr98-S-22" source="k0j4HsbBSSwY-GXr98-S-32" target="k0j4HsbBSSwY-GXr98-S-41">
          <mxGeometry relative="1" as="geometry" />
        </mxCell>
        <mxCell id="k0j4HsbBSSwY-GXr98-S-52" style="edgeStyle=orthogonalEdgeStyle;rounded=0;orthogonalLoop=1;jettySize=auto;html=1;exitX=1;exitY=0.5;exitDx=0;exitDy=0;entryX=0.5;entryY=0;entryDx=0;entryDy=0;" edge="1" parent="k0j4HsbBSSwY-GXr98-S-22" source="k0j4HsbBSSwY-GXr98-S-32" target="k0j4HsbBSSwY-GXr98-S-49">
          <mxGeometry relative="1" as="geometry" />
        </mxCell>
        <mxCell id="k0j4HsbBSSwY-GXr98-S-32" value="index &amp;lt; myArray.Length" style="rhombus;whiteSpace=wrap;html=1;fillColor=#d5e8d4;strokeColor=#82b366;" vertex="1" parent="k0j4HsbBSSwY-GXr98-S-22">
          <mxGeometry x="210" y="455" width="180" height="120" as="geometry" />
        </mxCell>
        <mxCell id="k0j4HsbBSSwY-GXr98-S-33" value="нет" style="text;html=1;strokeColor=none;fillColor=none;align=center;verticalAlign=middle;whiteSpace=wrap;rounded=0;" vertex="1" parent="k0j4HsbBSSwY-GXr98-S-22">
          <mxGeometry x="394" y="485" width="60" height="30" as="geometry" />
        </mxCell>
        <mxCell id="k0j4HsbBSSwY-GXr98-S-34" value="да" style="text;html=1;strokeColor=none;fillColor=none;align=center;verticalAlign=middle;whiteSpace=wrap;rounded=0;" vertex="1" parent="k0j4HsbBSSwY-GXr98-S-22">
          <mxGeometry x="290" y="570" width="60" height="30" as="geometry" />
        </mxCell>
        <mxCell id="k0j4HsbBSSwY-GXr98-S-48" value="" style="edgeStyle=orthogonalEdgeStyle;rounded=0;orthogonalLoop=1;jettySize=auto;html=1;" edge="1" parent="k0j4HsbBSSwY-GXr98-S-22" source="k0j4HsbBSSwY-GXr98-S-41" target="k0j4HsbBSSwY-GXr98-S-44">
          <mxGeometry relative="1" as="geometry" />
        </mxCell>
        <mxCell id="k0j4HsbBSSwY-GXr98-S-41" value="newArray[newArray.Length] = text&amp;nbsp;" style="rounded=0;whiteSpace=wrap;html=1;" vertex="1" parent="k0j4HsbBSSwY-GXr98-S-22">
          <mxGeometry x="215" y="720" width="170" height="60" as="geometry" />
        </mxCell>
        <mxCell id="k0j4HsbBSSwY-GXr98-S-47" value="" style="edgeStyle=orthogonalEdgeStyle;rounded=0;orthogonalLoop=1;jettySize=auto;html=1;" edge="1" parent="k0j4HsbBSSwY-GXr98-S-22" source="k0j4HsbBSSwY-GXr98-S-44" target="k0j4HsbBSSwY-GXr98-S-46">
          <mxGeometry relative="1" as="geometry" />
        </mxCell>
        <mxCell id="k0j4HsbBSSwY-GXr98-S-44" value="return newArray" style="rounded=1;whiteSpace=wrap;html=1;" vertex="1" parent="k0j4HsbBSSwY-GXr98-S-22">
          <mxGeometry x="240" y="830" width="120" height="60" as="geometry" />
        </mxCell>
        <mxCell id="k0j4HsbBSSwY-GXr98-S-46" value="Stop" style="ellipse;whiteSpace=wrap;html=1;fillColor=#f8cecc;strokeColor=#b85450;" vertex="1" parent="k0j4HsbBSSwY-GXr98-S-22">
          <mxGeometry x="240" y="925" width="120" height="50" as="geometry" />
        </mxCell>
        <mxCell id="k0j4HsbBSSwY-GXr98-S-51" value="" style="edgeStyle=orthogonalEdgeStyle;rounded=0;orthogonalLoop=1;jettySize=auto;html=1;" edge="1" parent="k0j4HsbBSSwY-GXr98-S-22" source="k0j4HsbBSSwY-GXr98-S-49" target="k0j4HsbBSSwY-GXr98-S-50">
          <mxGeometry relative="1" as="geometry" />
        </mxCell>
        <mxCell id="k0j4HsbBSSwY-GXr98-S-49" value="newArray[index] = myArray[index]&amp;nbsp;" style="rounded=0;whiteSpace=wrap;html=1;" vertex="1" parent="k0j4HsbBSSwY-GXr98-S-22">
          <mxGeometry x="430" y="575" width="170" height="60" as="geometry" />
        </mxCell>
        <mxCell id="k0j4HsbBSSwY-GXr98-S-53" style="edgeStyle=orthogonalEdgeStyle;rounded=0;orthogonalLoop=1;jettySize=auto;html=1;exitX=0.5;exitY=1;exitDx=0;exitDy=0;" edge="1" parent="k0j4HsbBSSwY-GXr98-S-22" source="k0j4HsbBSSwY-GXr98-S-50">
          <mxGeometry relative="1" as="geometry">
            <mxPoint x="300" y="435" as="targetPoint" />
            <Array as="points">
              <mxPoint x="515" y="745" />
              <mxPoint x="660" y="745" />
              <mxPoint x="660" y="435" />
            </Array>
          </mxGeometry>
        </mxCell>
        <mxCell id="k0j4HsbBSSwY-GXr98-S-50" value="index++" style="rounded=0;whiteSpace=wrap;html=1;" vertex="1" parent="k0j4HsbBSSwY-GXr98-S-22">
          <mxGeometry x="455" y="675" width="120" height="35" as="geometry" />
        </mxCell>
        <mxCell id="k0j4HsbBSSwY-GXr98-S-39" style="edgeStyle=orthogonalEdgeStyle;rounded=0;orthogonalLoop=1;jettySize=auto;html=1;" edge="1" parent="WIyWlLk6GJQsqaUBKTNV-1" source="k0j4HsbBSSwY-GXr98-S-36">
          <mxGeometry relative="1" as="geometry">
            <mxPoint x="180" y="319" as="targetPoint" />
            <Array as="points">
              <mxPoint x="445" y="990" />
              <mxPoint x="660" y="990" />
              <mxPoint x="660" y="319" />
            </Array>
          </mxGeometry>
        </mxCell>
        <mxCell id="k0j4HsbBSSwY-GXr98-S-36" value="index++" style="rounded=0;whiteSpace=wrap;html=1;" vertex="1" parent="WIyWlLk6GJQsqaUBKTNV-1">
          <mxGeometry x="385" y="890" width="120" height="60" as="geometry" />
        </mxCell>
      </root>
    </mxGraphModel>
  </diagram>
</mxfile>
